HIERARCHY
ROOT Hips
{
	OFFSET 0.000000 88.474243 0.000000
	CHANNELS 6 Xposition Yposition Zposition Zrotation Yrotation Xrotation 
	JOINT Hips_Spine
	{
		OFFSET 0.000000 0.000000 0.000000
		CHANNELS 3 Zrotation Yrotation Xrotation
		JOINT Spine
		{
			OFFSET 0.005100 8.711998 -0.691000
			CHANNELS 3 Zrotation Yrotation Xrotation
			JOINT Spine1
			{
				OFFSET -0.009200 8.660301 -1.275000
				CHANNELS 3 Zrotation Yrotation Xrotation
				JOINT Spine2
				{
					OFFSET 0.006300 9.852501 -1.857000
					CHANNELS 3 Zrotation Yrotation Xrotation
					JOINT Spine2_Neck
					{
						OFFSET 0.000000 0.000000 0.000000
						CHANNELS 3 Zrotation Yrotation Xrotation
						JOINT Neck
						{
							OFFSET 0.016300 11.420799 -0.263300
							CHANNELS 3 Zrotation Yrotation Xrotation
							End Site #name: Head
							{
								OFFSET -0.019200 9.262405 2.362500
							}
						}
					}
					JOINT Spine2_LeftShoulder
					{
						OFFSET 0.000000 0.000000 0.000000
						CHANNELS 3 Zrotation Yrotation Xrotation
						JOINT LeftShoulder
						{
							OFFSET 5.616900 6.732201 -0.345700
							CHANNELS 3 Zrotation Yrotation Xrotation
							JOINT LeftArm
							{
								OFFSET 10.664888 -0.183372 -2.440700
								CHANNELS 3 Zrotation Yrotation Xrotation
								JOINT LeftForeArm
								{
									OFFSET 27.459126 0.000000 0.000000
									CHANNELS 3 Zrotation Yrotation Xrotation
									End Site #name: LeftHand
									{
										OFFSET 21.306858 0.000000 0.000000
									}
								}
							}
						}
					}
					JOINT Spine2_RightShoulder
					{
						OFFSET 0.000000 0.000000 0.000000
						CHANNELS 3 Zrotation Yrotation Xrotation
						JOINT RightShoulder
						{
							OFFSET -5.580300 6.737503 -0.344400
							CHANNELS 3 Zrotation Yrotation Xrotation
							JOINT RightArm
							{
								OFFSET -10.679335 -0.188484 -2.383900
								CHANNELS 3 Zrotation Yrotation Xrotation
								JOINT RightForeArm
								{
									OFFSET -27.503529 0.000000 0.000000
									CHANNELS 3 Zrotation Yrotation Xrotation
									End Site #name: RightHand
									{
										OFFSET -21.306808 0.000000 0.000000
									}
								}
							}
						}
					}
				}
			}
		}
	}
	JOINT Hips_LeftUpLeg
	{
		OFFSET 0.000000 0.000000 0.000000
		CHANNELS 3 Zrotation Yrotation Xrotation
		JOINT LeftUpLeg
		{
			OFFSET 6.857700 -6.739601 0.312100
			CHANNELS 3 Zrotation Yrotation Xrotation
			JOINT LeftLeg
			{
				OFFSET -0.367590 -34.731552 -4.572400
				CHANNELS 3 Zrotation Yrotation Xrotation
				End Site #name: LeftFoot
				{
					OFFSET 0.367590 -34.656704 -6.067400
				}
			}
		}
	}
	JOINT Hips_RightUpLeg
	{
		OFFSET 0.000000 0.000000 0.000000
		CHANNELS 3 Zrotation Yrotation Xrotation
		JOINT RightUpLeg
		{
			OFFSET -6.876100 -6.733299 0.301000
			CHANNELS 3 Zrotation Yrotation Xrotation
			JOINT RightLeg
			{
				OFFSET 0.347353 -34.795158 -4.515900
				CHANNELS 3 Zrotation Yrotation Xrotation
				End Site #name: RightFoot
				{
					OFFSET -0.347353 -34.589367 -6.070300
				}
			}
		}
	}
}
MOTION
Frames: 9
Frame Time: 0.041667
2.014354 -0.891458 -1.502721 175.480946 28.335182 -179.632450 0.000000 -0.000000 0.000000 3.836603 2.575011 1.608798 1.504070 -1.016206 2.653560 0.000000 0.000000 0.000000 1.819261 -1.456700 3.659836 2.482473 -29.971235 1.948100 0.725635 -1.012037 0.891289 1.121271 -1.906631 -2.548586 -84.380286 -20.614659 4.848337 8.400072 -15.740692 7.958336 0.997429 -2.285173 2.263062 12.606093 8.557705 5.449078 57.512591 18.312047 11.210332 -4.187220 41.775876 2.285096 0.000000 0.000000 -0.000000 -0.946827 16.542141 -12.098458 -1.312722 -34.495599 -8.255910 0.000000 -0.000000 -0.000000 -5.117420 -47.156455 -9.800771 -12.549657 -12.247393 20.572040 
2.033029 -0.895085 -1.533701 175.431284 27.741464 -179.755484 0.000000 -0.000000 0.000000 3.774204 2.600195 1.725684 1.328046 -1.003521 2.578023 0.000000 0.000000 0.000000 1.678329 -1.447670 3.545940 2.272769 -29.657541 1.833345 0.626493 -1.017524 0.823468 1.005283 -2.081952 -2.388643 -84.147094 -20.991491 5.126881 8.383156 -15.818548 7.858491 0.883641 -2.258623 2.137580 12.451159 8.649539 5.492652 57.453315 18.189666 11.400412 -4.280322 41.563712 2.139063 0.000000 0.000000 -0.000000 -0.969004 16.390164 -12.257746 -1.369725 -34.321300 -8.087844 0.000000 -0.000000 -0.000000 -4.999422 -46.685374 -9.928505 -12.436118 -12.119726 20.611855 
2.057063 -0.897415 -1.562368 175.410856 26.901744 -179.862724 0.000000 -0.000000 0.000000 3.683613 2.642729 1.849322 1.154824 -0.988971 2.497852 0.000000 0.000000 0.000000 1.541250 -1.431539 3.435443 2.057554 -29.233185 1.685667 0.525972 -1.016162 0.757431 0.884417 -2.295811 -2.212087 -83.880715 -21.374326 5.407073 8.367242 -15.953044 7.752282 0.770883 -2.225575 2.005769 12.280072 8.721257 5.526263 57.420253 18.070218 11.589988 -4.370779 41.391904 2.011120 0.000000 0.000000 -0.000000 -0.989781 16.271761 -12.447125 -1.444776 -34.128251 -7.853217 0.000000 -0.000000 -0.000000 -4.888600 -46.176950 -10.046215 -12.301474 -12.000424 20.627854 
2.087255 -0.897925 -1.589606 175.413058 25.690362 -179.965909 0.000000 -0.000000 0.000000 3.560943 2.702735 1.965695 0.984796 -0.979221 2.418663 0.000000 0.000000 0.000000 1.417015 -1.410668 3.327932 1.895523 -28.699096 1.430300 0.431779 -1.008770 0.693208 0.762310 -2.534334 -2.020602 -83.604968 -21.766433 5.667811 8.337849 -16.167160 7.625132 0.669278 -2.187967 1.888482 12.083975 8.799052 5.552584 57.407013 17.973758 11.807438 -4.451692 41.210547 1.894339 0.000000 0.000000 -0.000000 -1.005386 16.169569 -12.668276 -1.541752 -33.905170 -7.536101 0.000000 -0.000000 -0.000000 -4.782548 -45.615462 -10.162711 -12.123772 -11.847120 20.621580 
2.124719 -0.897255 -1.615829 175.432008 24.256077 179.940851 0.000000 -0.000000 0.000000 3.416282 2.774984 2.065661 0.818107 -0.969065 2.336898 0.000000 0.000000 0.000000 1.303569 -1.387691 3.225701 1.752130 -28.094982 1.106904 0.343760 -0.991643 0.653040 0.640278 -2.807421 -1.813998 -83.301052 -22.128241 5.923359 8.288808 -16.542630 7.480937 0.575763 -2.158229 1.776247 11.884240 8.894999 5.571553 57.415418 17.903167 11.997125 -4.538995 41.055818 1.783605 0.000000 0.000000 -0.000000 -1.025086 16.079861 -12.908281 -1.645109 -33.647338 -7.171844 0.000000 -0.000000 -0.000000 -4.672168 -45.059117 -10.279217 -11.934525 -11.588647 20.600233 
2.169821 -0.895686 -1.641266 175.463841 22.648830 179.862888 0.000000 -0.000000 0.000000 3.249336 2.842060 2.179158 0.653924 -0.958318 2.253464 0.000000 0.000000 0.000000 1.192011 -1.362692 3.124481 1.617981 -27.438443 0.736486 0.258051 -0.973120 0.615818 0.522564 -3.108753 -1.601975 -82.996427 -22.453597 6.154011 8.229011 -17.081556 7.330424 0.483341 -2.123728 1.682320 11.685955 9.023798 5.592873 57.426323 17.834970 12.130679 -4.624115 40.976825 1.671513 0.000000 0.000000 -0.000000 -1.046820 15.989514 -13.176722 -1.761773 -33.378548 -6.766447 0.000000 -0.000000 -0.000000 -4.566368 -44.628710 -10.364876 -11.733686 -11.201232 20.544165 
2.223113 -0.893877 -1.665650 175.499900 20.871140 179.803499 0.000000 -0.000000 0.000000 3.057571 2.893605 2.298591 0.501677 -0.949100 2.177157 0.000000 0.000000 0.000000 1.091242 -1.340023 3.032565 1.470329 -26.755391 0.353339 0.179402 -0.950999 0.589070 0.409011 -3.423762 -1.395923 -82.686896 -22.729908 6.355166 8.159385 -17.814616 7.174919 0.397991 -2.088196 1.611015 11.497837 9.206117 5.632995 57.435191 17.734887 12.210602 -4.714325 41.000897 1.553663 0.000000 0.000000 -0.000000 -1.068131 15.903313 -13.472791 -1.892691 -33.097599 -6.314439 0.000000 -0.000000 -0.000000 -4.486416 -44.454126 -10.433812 -11.538072 -10.700006 20.509130 
2.284281 -0.892689 -1.689013 175.549359 19.013013 179.770264 0.000000 -0.000000 0.000000 2.849915 2.883483 2.444181 0.369441 -0.941860 2.114514 0.000000 0.000000 0.000000 1.009021 -1.319897 2.957680 1.312137 -26.057152 -0.033049 0.114160 -0.928761 0.572248 0.319344 -3.773355 -1.198520 -82.391567 -22.950702 6.514594 8.109279 -18.659698 7.011377 0.323852 -2.057764 1.554519 11.344303 9.431358 5.698348 57.449936 17.566907 12.186520 -4.828559 41.225488 1.489420 0.000000 0.000000 -0.000000 -1.096601 15.827037 -13.802872 -2.033669 -32.799839 -5.823263 0.000000 -0.000000 -0.000000 -4.428706 -44.445801 -10.502412 -11.356831 -10.160817 20.521687 
2.352638 -0.891780 -1.710683 175.587820 17.160644 179.751827 0.000000 -0.000000 0.000000 2.613494 2.822484 2.615594 0.255418 -0.935961 2.067546 0.000000 0.000000 0.000000 0.939395 -1.303171 2.898112 1.146940 -25.354749 -0.413079 0.059089 -0.909231 0.564874 0.260124 -4.141328 -1.023038 -82.073549 -23.116057 6.643202 8.075446 -19.575976 6.835619 0.261246 -2.034277 1.514668 11.215908 9.711827 5.792074 57.444236 17.303484 11.997898 -4.971125 41.734125 1.381219 0.000000 0.000000 -0.000000 -1.135611 15.770022 -14.180810 -2.196156 -32.492226 -5.270124 0.000000 -0.000000 -0.000000 -4.398706 -44.483683 -10.582652 -11.182685 -9.660546 20.558117 
